<svg width="820" height="220" viewBox="0 0 820 220" xmlns="http://www.w3.org/2000/svg" role="img" aria-label="Dimensional stats">
  <defs>
    <pattern id="hudgrid" width="20" height="20" patternUnits="userSpaceOnUse">
      <path d="M 20 0 L 0 0 0 20" fill="none" stroke="#FF38F8" stroke-width="0.6" opacity="0.09"/>
    </pattern>
    <pattern id="hudgridbold" width="80" height="80" patternUnits="userSpaceOnUse">
      <path d="M 80 0 L 0 0 0 80" fill="none" stroke="#FF38F8" stroke-width="1" opacity="0.162"/>
    </pattern>
    <filter id="hudglow" x="-60%" y="-60%" width="220%" height="220%">
      <feGaussianBlur stdDeviation="1.4" result="blur"/>
      <feMerge>
        <feMergeNode in="blur"/>
        <feMergeNode in="SourceGraphic"/>
      </feMerge>
    </filter>
    <pattern id="scanlines" width="4" height="3" patternUnits="userSpaceOnUse">
      <rect width="4" height="1" fill="black" fill-opacity="0.15"/>
    </pattern></defs>
  <rect width="820" height="220" fill="#07090F" fill-opacity="0.82"/>
  <rect width="820" height="220" rx="0" fill="url(#hudgrid)"/><rect width="820" height="220" rx="0" fill="url(#hudgridbold)"/>
  
  <g fill="none">
    <line x1="65.0" y1="65.0" x2="155.0" y2="65.0" stroke="#FF38F8" stroke-width="1.2"/><line x1="84.8" y1="82.1" x2="151.4" y2="82.1" stroke="#FF38F8" stroke-width="1.2"/><line x1="65.0" y1="65.0" x2="84.8" y2="82.1" stroke="#FF38F8" stroke-width="1.2"/><line x1="155.0" y1="65.0" x2="155.0" y2="155.0" stroke="#FF38F8" stroke-width="1.2"/><line x1="151.4" y1="82.1" x2="151.4" y2="148.7" stroke="#FF38F8" stroke-width="1.2"/><line x1="155.0" y1="65.0" x2="151.4" y2="82.1" stroke="#FF38F8" stroke-width="1.2"/><line x1="155.0" y1="155.0" x2="65.0" y2="155.0" stroke="#FF38F8" stroke-width="1.2"/><line x1="151.4" y1="148.7" x2="84.8" y2="148.7" stroke="#FF38F8" stroke-width="1.2"/><line x1="155.0" y1="155.0" x2="151.4" y2="148.7" stroke="#FF38F8" stroke-width="1.2"/><line x1="65.0" y1="155.0" x2="65.0" y2="65.0" stroke="#FF38F8" stroke-width="1.2"/><line x1="84.8" y1="148.7" x2="84.8" y2="82.1" stroke="#FF38F8" stroke-width="1.2"/><line x1="65.0" y1="155.0" x2="84.8" y2="148.7" stroke="#FF38F8" stroke-width="1.2"/>
    <text x="110.0" y="106.0" font-family="Consolas, Menlo, monospace" font-size="9" fill="#FF38F8" text-anchor="middle">120</text>
  </g>
  
  <defs>
    <linearGradient id="numGrad0" x1="0" y1="0" x2="1" y2="0">
      <stop offset="0%" stop-color="#72196f"/>
      <stop offset="100%" stop-color="#ffc3fc"/>
    </linearGradient></defs>
  <g transform="translate(240,0.0)">
    <rect width="280" height="100" fill="#07090F" fill-opacity="0.3" stroke="#FF38F8" stroke-width="1"/>
    <rect x="0" y="0" width="4" height="100" fill="#FF38F8"/>
    <text x="20" y="28" font-family="Consolas, Menlo, monospace" font-size="10" fill="#8a7fa8" letter-spacing="1">CONTEST RATING</text>
    <text x="20" y="64" font-family="Consolas, Menlo, monospace" font-size="30" font-weight="700" fill="url(#numGrad0)" filter="url(#hudglow)">unrated</text>
    <line x1="20" y1="80" x2="138" y2="80" stroke="#FF38F8" stroke-width="2"/>
  </g>
  <defs>
    <linearGradient id="numGrad1" x1="0" y1="0" x2="1" y2="0">
      <stop offset="0%" stop-color="#72196f"/>
      <stop offset="100%" stop-color="#ffc3fc"/>
    </linearGradient></defs>
  <g transform="translate(540,0.0)">
    <rect width="280" height="100" fill="#07090F" fill-opacity="0.3" stroke="#FF38F8" stroke-width="1"/>
    <rect x="0" y="0" width="4" height="100" fill="#FF38F8"/>
    <text x="20" y="28" font-family="Consolas, Menlo, monospace" font-size="10" fill="#8a7fa8" letter-spacing="1">PROBLEMS SOLVED</text>
    <text x="20" y="64" font-family="Consolas, Menlo, monospace" font-size="30" font-weight="700" fill="url(#numGrad1)" filter="url(#hudglow)">120</text>
    <line x1="20" y1="80" x2="82" y2="80" stroke="#FF38F8" stroke-width="2"/>
  </g>
  <defs>
    <linearGradient id="numGrad2" x1="0" y1="0" x2="1" y2="0">
      <stop offset="0%" stop-color="#72196f"/>
      <stop offset="100%" stop-color="#ffc3fc"/>
    </linearGradient></defs>
  <g transform="translate(240,120.0)">
    <rect width="280" height="100" fill="#07090F" fill-opacity="0.3" stroke="#FF38F8" stroke-width="1"/>
    <rect x="0" y="0" width="4" height="100" fill="#FF38F8"/>
    <text x="20" y="28" font-family="Consolas, Menlo, monospace" font-size="10" fill="#8a7fa8" letter-spacing="1">GITHUB STARS</text>
    <text x="20" y="64" font-family="Consolas, Menlo, monospace" font-size="30" font-weight="700" fill="url(#numGrad2)" filter="url(#hudglow)">37</text>
    <line x1="20" y1="80" x2="68" y2="80" stroke="#FF38F8" stroke-width="2"/>
  </g>
  <defs>
    <linearGradient id="numGrad3" x1="0" y1="0" x2="1" y2="0">
      <stop offset="0%" stop-color="#72196f"/>
      <stop offset="100%" stop-color="#ffc3fc"/>
    </linearGradient></defs>
  <g transform="translate(540,120.0)">
    <rect width="280" height="100" fill="#07090F" fill-opacity="0.3" stroke="#FF38F8" stroke-width="1"/>
    <rect x="0" y="0" width="4" height="100" fill="#FF38F8"/>
    <text x="20" y="28" font-family="Consolas, Menlo, monospace" font-size="10" fill="#8a7fa8" letter-spacing="1">MAX STREAK</text>
    <text x="20" y="64" font-family="Consolas, Menlo, monospace" font-size="30" font-weight="700" fill="url(#numGrad3)" filter="url(#hudglow)">7</text>
    <line x1="20" y1="80" x2="54" y2="80" stroke="#FF38F8" stroke-width="2"/>
  </g>
  <rect x="0" y="0" width="820" height="220" fill="url(#scanlines)"/>
</svg>