<svg width="760" height="180" viewBox="0 0 760 180" xmlns="http://www.w3.org/2000/svg" role="img" aria-label="Eddy Odero, Full-Stack Developer, Kisumu, Kenya">
  <defs>
    <linearGradient id="heroGrad" x1="0" y1="0" x2="1" y2="1">
      <stop offset="0%" stop-color="#0d0221"/>
      <stop offset="100%" stop-color="#ff2079" stop-opacity="0.55"/>
    </linearGradient>
    <radialGradient id="dotFade" cx="50%" cy="50%" r="70%">
      <stop offset="0%" stop-color="white" stop-opacity="0.06"/>
      <stop offset="100%" stop-color="white" stop-opacity="0"/>
    </radialGradient>
  </defs>

  <rect width="760" height="180" rx="18" fill="url(#heroGrad)"/>
  <rect width="760" height="180" rx="18" fill="url(#dotFade)"/>

  <circle cx="110" cy="90.0" r="56" fill="#0d0221" fill-opacity="0.35" stroke="#ff2079" stroke-width="2.5"/>
  <text x="110" y="102.0" font-family="Segoe UI, Helvetica, Arial, sans-serif" font-size="34" font-weight="700" fill="white" text-anchor="middle">EO</text>

  <text x="210" y="68.0" font-family="Segoe UI, Helvetica, Arial, sans-serif" font-size="30" font-weight="700" fill="white">Eddy Odero</text>
  <text x="210" y="100.0" font-family="Segoe UI, Helvetica, Arial, sans-serif" font-size="17" fill="#ff2079">Full-Stack Developer</text>

  <g transform="translate(210,114.0) scale(0.055)" fill="white"><path d="M12 0C7.6 0 4 3.6 4 8c0 6 8 16 8 16s8-10 8-16c0-4.4-3.6-8-8-8z M12 11a3 3 0 1 1 0-6 3 3 0 0 1 0 6z"/></g>
  <text x="230" y="132.0" font-family="Segoe UI, Helvetica, Arial, sans-serif" font-size="14" fill="white" fill-opacity="0.8">Kisumu, Kenya</text>
</svg>