<svg width="808" height="100" viewBox="0 0 808 100" xmlns="http://www.w3.org/2000/svg" role="img" aria-label="Projects">
  <defs>
    <filter id="cardShadow" x="-20%" y="-20%" width="140%" height="140%">
      <feDropShadow dx="0" dy="2" stdDeviation="3" flood-opacity="0.15"/>
    </filter>
  </defs>
  
  <g transform="translate(0,0)" filter="url(#cardShadow)">
    <rect width="190" height="100" rx="12" fill="#f8f9fa"/>
    <rect width="190" height="6" rx="3" fill="#ff2079"/>
    <rect y="6" width="190" height="6" fill="#ff2079"/>
    <circle cx="24" cy="76" r="10" fill="#ff2079" fill-opacity="0.15"/>
    <text x="24" y="80" font-size="12" text-anchor="middle" fill="#ff2079">#1</text>
    <text x="95.0" y="60.0" font-family="Segoe UI, Helvetica, Arial, sans-serif" font-size="15" font-weight="600" fill="#212529" text-anchor="middle">SatGate</text>
  </g>
  <g transform="translate(206,0)" filter="url(#cardShadow)">
    <rect width="190" height="100" rx="12" fill="#f8f9fa"/>
    <rect width="190" height="6" rx="3" fill="#ff2079"/>
    <rect y="6" width="190" height="6" fill="#ff2079"/>
    <circle cx="24" cy="76" r="10" fill="#ff2079" fill-opacity="0.15"/>
    <text x="24" y="80" font-size="12" text-anchor="middle" fill="#ff2079">#2</text>
    <text x="95.0" y="60.0" font-family="Segoe UI, Helvetica, Arial, sans-serif" font-size="15" font-weight="600" fill="#212529" text-anchor="middle">EDU-FLIX</text>
  </g>
  <g transform="translate(412,0)" filter="url(#cardShadow)">
    <rect width="190" height="100" rx="12" fill="#f8f9fa"/>
    <rect width="190" height="6" rx="3" fill="#ff2079"/>
    <rect y="6" width="190" height="6" fill="#ff2079"/>
    <circle cx="24" cy="76" r="10" fill="#ff2079" fill-opacity="0.15"/>
    <text x="24" y="80" font-size="12" text-anchor="middle" fill="#ff2079">#3</text>
    <text x="95.0" y="50.0" font-family="Segoe UI, Helvetica, Arial, sans-serif" font-size="15" font-weight="600" fill="#212529" text-anchor="middle">lem-in colony</text><text x="95.0" y="70.0" font-family="Segoe UI, Helvetica, Arial, sans-serif" font-size="15" font-weight="600" fill="#212529" text-anchor="middle">visualizer</text>
  </g>
  <g transform="translate(618,0)" filter="url(#cardShadow)">
    <rect width="190" height="100" rx="12" fill="#f8f9fa"/>
    <rect width="190" height="6" rx="3" fill="#ff2079"/>
    <rect y="6" width="190" height="6" fill="#ff2079"/>
    <circle cx="24" cy="76" r="10" fill="#ff2079" fill-opacity="0.15"/>
    <text x="24" y="80" font-size="12" text-anchor="middle" fill="#ff2079">#4</text>
    <text x="95.0" y="60.0" font-family="Segoe UI, Helvetica, Arial, sans-serif" font-size="15" font-weight="600" fill="#212529" text-anchor="middle">Maison POS</text>
  </g>
</svg>