<svg width="753" height="64" viewBox="0 0 753 64" xmlns="http://www.w3.org/2000/svg" role="img" aria-label="Tech stack">
  
  <g>
    <line x1="0.0" y1="13.0" x2="5.0" y2="13.0" stroke="#00ADD8" stroke-width="2"/><line x1="43.879999999999995" y1="13.0" x2="48.879999999999995" y2="13.0" stroke="#00ADD8" stroke-width="2"/>
    <rect x="5.0" y="0.0" width="38.9" height="26" rx="3" fill="#0d0221" stroke="#00ADD8" stroke-width="1.3"/>
    <circle cx="11.0" cy="6.0" r="3" fill="#00ADD8" fill-opacity="0.55"/>
    <text x="24.4" y="17.2" font-family="Consolas, Menlo, monospace" font-size="12" font-weight="700" fill="#00ADD8" text-anchor="middle">Go</text>
  </g>
  <g>
    <line x1="58.879999999999995" y1="13.0" x2="63.879999999999995" y2="13.0" stroke="#F7DF1E" stroke-width="2"/><line x1="162.27999999999997" y1="13.0" x2="167.27999999999997" y2="13.0" stroke="#F7DF1E" stroke-width="2"/>
    <rect x="63.9" y="0.0" width="98.4" height="26" rx="3" fill="#0d0221" stroke="#F7DF1E" stroke-width="1.3"/>
    <circle cx="69.9" cy="6.0" r="3" fill="#F7DF1E" fill-opacity="0.55"/>
    <text x="113.1" y="17.2" font-family="Consolas, Menlo, monospace" font-size="12" font-weight="700" fill="#F7DF1E" text-anchor="middle">JavaScript</text>
  </g>
  <g>
    <line x1="177.27999999999997" y1="13.0" x2="182.27999999999997" y2="13.0" stroke="#3178C6" stroke-width="2"/><line x1="280.67999999999995" y1="13.0" x2="285.67999999999995" y2="13.0" stroke="#3178C6" stroke-width="2"/>
    <rect x="182.3" y="0.0" width="98.4" height="26" rx="3" fill="#0d0221" stroke="#3178C6" stroke-width="1.3"/>
    <circle cx="188.3" cy="6.0" r="3" fill="#3178C6" fill-opacity="0.55"/>
    <text x="231.5" y="17.2" font-family="Consolas, Menlo, monospace" font-size="12" font-weight="700" fill="#3178C6" text-anchor="middle">TypeScript</text>
  </g>
  <g>
    <line x1="295.67999999999995" y1="13.0" x2="300.67999999999995" y2="13.0" stroke="#8892BF" stroke-width="2"/><line x1="346.99999999999994" y1="13.0" x2="351.99999999999994" y2="13.0" stroke="#8892BF" stroke-width="2"/>
    <rect x="300.7" y="0.0" width="46.3" height="26" rx="3" fill="#0d0221" stroke="#8892BF" stroke-width="1.3"/>
    <circle cx="306.7" cy="6.0" r="3" fill="#8892BF" fill-opacity="0.55"/>
    <text x="323.8" y="17.2" font-family="Consolas, Menlo, monospace" font-size="12" font-weight="700" fill="#8892BF" text-anchor="middle">PHP</text>
  </g>
  <g>
    <line x1="361.99999999999994" y1="13.0" x2="366.99999999999994" y2="13.0" stroke="#68A063" stroke-width="2"/><line x1="443.0799999999999" y1="13.0" x2="448.0799999999999" y2="13.0" stroke="#68A063" stroke-width="2"/>
    <rect x="367.0" y="0.0" width="76.1" height="26" rx="3" fill="#0d0221" stroke="#68A063" stroke-width="1.3"/>
    <circle cx="373.0" cy="6.0" r="3" fill="#68A063" fill-opacity="0.55"/>
    <text x="405.0" y="17.2" font-family="Consolas, Menlo, monospace" font-size="12" font-weight="700" fill="#68A063" text-anchor="middle">Node.js</text>
  </g>
  <g>
    <line x1="458.0799999999999" y1="13.0" x2="463.0799999999999" y2="13.0" stroke="#00599C" stroke-width="2"/><line x1="509.3999999999999" y1="13.0" x2="514.3999999999999" y2="13.0" stroke="#00599C" stroke-width="2"/>
    <rect x="463.1" y="0.0" width="46.3" height="26" rx="3" fill="#0d0221" stroke="#00599C" stroke-width="1.3"/>
    <circle cx="469.1" cy="6.0" r="3" fill="#00599C" fill-opacity="0.55"/>
    <text x="486.2" y="17.2" font-family="Consolas, Menlo, monospace" font-size="12" font-weight="700" fill="#00599C" text-anchor="middle">C++</text>
  </g>
  <g>
    <line x1="524.3999999999999" y1="13.0" x2="529.3999999999999" y2="13.0" stroke="#E34C26" stroke-width="2"/><line x1="583.1599999999999" y1="13.0" x2="588.1599999999999" y2="13.0" stroke="#E34C26" stroke-width="2"/>
    <rect x="529.4" y="0.0" width="53.8" height="26" rx="3" fill="#0d0221" stroke="#E34C26" stroke-width="1.3"/>
    <circle cx="535.4" cy="6.0" r="3" fill="#E34C26" fill-opacity="0.55"/>
    <text x="556.3" y="17.2" font-family="Consolas, Menlo, monospace" font-size="12" font-weight="700" fill="#E34C26" text-anchor="middle">HTML</text>
  </g>
  <g>
    <line x1="598.1599999999999" y1="13.0" x2="603.1599999999999" y2="13.0" stroke="#2965F1" stroke-width="2"/><line x1="649.4799999999999" y1="13.0" x2="654.4799999999999" y2="13.0" stroke="#2965F1" stroke-width="2"/>
    <rect x="603.2" y="0.0" width="46.3" height="26" rx="3" fill="#0d0221" stroke="#2965F1" stroke-width="1.3"/>
    <circle cx="609.2" cy="6.0" r="3" fill="#2965F1" fill-opacity="0.55"/>
    <text x="626.3" y="17.2" font-family="Consolas, Menlo, monospace" font-size="12" font-weight="700" fill="#2965F1" text-anchor="middle">CSS</text>
  </g>
  <g>
    <line x1="664.4799999999998" y1="13.0" x2="669.4799999999998" y2="13.0" stroke="#4C8BBE" stroke-width="2"/><line x1="738.1199999999998" y1="13.0" x2="743.1199999999998" y2="13.0" stroke="#4C8BBE" stroke-width="2"/>
    <rect x="669.5" y="0.0" width="68.6" height="26" rx="3" fill="#0d0221" stroke="#4C8BBE" stroke-width="1.3"/>
    <circle cx="675.5" cy="6.0" r="3" fill="#4C8BBE" fill-opacity="0.55"/>
    <text x="703.8" y="17.2" font-family="Consolas, Menlo, monospace" font-size="12" font-weight="700" fill="#4C8BBE" text-anchor="middle">SQLite</text>
  </g>
  <g>
    <line x1="0.0" y1="51.0" x2="5.0" y2="51.0" stroke="#336791" stroke-width="2"/><line x1="103.39999999999999" y1="51.0" x2="108.39999999999999" y2="51.0" stroke="#336791" stroke-width="2"/>
    <rect x="5.0" y="38.0" width="98.4" height="26" rx="3" fill="#0d0221" stroke="#336791" stroke-width="1.3"/>
    <circle cx="11.0" cy="44.0" r="3" fill="#336791" fill-opacity="0.55"/>
    <text x="54.2" y="55.2" font-family="Consolas, Menlo, monospace" font-size="12" font-weight="700" fill="#336791" text-anchor="middle">PostgreSQL</text>
  </g>
  <g>
    <line x1="118.39999999999999" y1="51.0" x2="123.39999999999999" y2="51.0" stroke="#2496ED" stroke-width="2"/><line x1="192.04" y1="51.0" x2="197.04" y2="51.0" stroke="#2496ED" stroke-width="2"/>
    <rect x="123.4" y="38.0" width="68.6" height="26" rx="3" fill="#0d0221" stroke="#2496ED" stroke-width="1.3"/>
    <circle cx="129.4" cy="44.0" r="3" fill="#2496ED" fill-opacity="0.55"/>
    <text x="157.7" y="55.2" font-family="Consolas, Menlo, monospace" font-size="12" font-weight="700" fill="#2496ED" text-anchor="middle">Docker</text>
  </g>
</svg>